<svg id="Слой_1" data-name="Слой 1" xmlns="http://www.w3.org/2000/svg" viewBox="0 0 121 121"><defs><style>.cls-1{fill:#6eb77a;}.cls-1,.cls-2,.cls-3{stroke:#000;stroke-miterlimit:10;}.cls-2{fill:#fff;}.cls-3{fill:none;}</style></defs><rect class="cls-1" x="0.5" y="0.5" width="40" height="40"/><rect class="cls-2" x="40.5" y="0.5" width="40" height="40"/><rect class="cls-2" x="80.5" y="0.5" width="40" height="40"/><rect class="cls-2" x="0.5" y="40.5" width="40" height="40"/><rect class="cls-1" x="40.5" y="40.5" width="40" height="40"/><rect class="cls-2" x="80.5" y="40.5" width="40" height="40"/><rect class="cls-2" x="0.5" y="80.5" width="40" height="40"/><rect class="cls-2" x="40.5" y="80.5" width="40" height="40"/><rect class="cls-1" x="80.5" y="80.5" width="40" height="40"/><line class="cls-3" x1="10.11" y1="8.44" x2="31.33" y2="29.65"/><line class="cls-3" x1="9.35" y1="29.33" x2="30.56" y2="8.12"/><line class="cls-3" x1="92.27" y1="90.05" x2="113.49" y2="111.27"/><line class="cls-3" x1="91.51" y1="110.95" x2="112.73" y2="89.73"/><line class="cls-3" x1="50.27" y1="51.05" x2="71.49" y2="72.27"/><line class="cls-3" x1="49.51" y1="71.95" x2="70.73" y2="50.73"/><circle class="cls-3" cx="19.81" cy="101.27" r="12"/><circle class="cls-3" cx="102.81" cy="60.27" r="12"/><circle class="cls-3" cx="60.81" cy="20.27" r="12"/></svg>